{"title":"Fruitvale-Station-2013 CAMRiP MP3 MURDER","uid":8831484,"size":771248419,"categoryP":"video","categoryS":"movies","magnet":"?xt=urn:btih:ce894c09abe918a2cc344a1535254aad215fb7ea&amp;dn=Fruitvale-Station-2013+CAMRiP+MP3+MURDER+&amp;tr=udp%3A%2F%2Ftracker.openbittorrent.com%3A80&amp;tr=udp%3A%2F%2Fopen.demonii.com%3A1337&amp;tr=udp%3A%2F%2Ftracker.coppersurfer.tk%3A6969&amp;tr=udp%3A%2F%2Fexodus.desync.com%3A6969","seeders":1,"leechers":0,"uploader":"R0thschild","files":8,"time":1376994007,"description":"Public Hash - Largest Bittorrent Community \nCrystal Clean files - Fast Speed! No Virus! No Fake! Enjoy!\n &lt;a href=&quot;\nhttp://www.imdb.com/title/tt2334649/?ref_=sr_1&quot; rel=&quot;nofollow&quot; target=&quot;_NEW&quot;&gt;\nhttp://www.imdb.com/title/tt2334649/?ref_=sr_1&lt;/a&gt;\n\nFormat : Matroska\nFormat version : Version 4 / Version 2\nFile size : 734 MiB\nDuration : 1h 17mn\nOverall bit rate : 1 319 Kbps\nEncoded date : UTC 2013-08-19 23:44:38\n\nVideo\nID : 1\nFormat : AVC\nFormat/Info : Advanced Video Codec\nFormat profile : &lt;a class=&quot;__cf_email__&quot; href=&quot;/cdn-cgi/l/email-protection&quot; data-cfemail=&quot;ca87aba3a48a86ffe4fb&quot;&gt;[email&amp;#160;protected]&lt;/a&gt;&lt;script cf-hash='f9e31' type=&quot;text/javascript&quot;&gt;\n/* &lt;![CDATA[ */!function(){try{var t=&quot;currentScript&quot;in document?document.currentScript:function(){for(var t=document.getElementsByTagName(&quot;script&quot;),e=t.length;e--;)if(t[e].getAttribute(&quot;cf-hash&quot;))return t[e]}();if(t&amp;&amp;t.previousSibling){var e,r,n,i,c=t.previousSibling,a=c.getAttribute(&quot;data-cfemail&quot;);if(a){for(e=&quot;&quot;,r=parseInt(a.substr(0,2),16),n=2;a.length-n;n+=2)i=parseInt(a.substr(n,2),16)^r,e+=String.fromCharCode(i);e=document.createTextNode(e),c.parentNode.replaceChild(e,c)}}}catch(u){}}();/* ]]&gt; */&lt;/script&gt;\nFormat settings, CABAC : Yes\nFormat settings, ReFrames : 1 frame\nCodec ID : V_MPEG4/ISO/AVC\nDuration : 1h 17mn\nBit rate : 1 181 Kbps\nWidth : 616 pixels\nHeight : 296 pixels\nDisplay aspect ratio : 2.000\nFrame rate mode : Constant\nFrame rate : 29.970 fps\nColor space : YUV\nChroma subsampling : 4:2:0\nBit depth : 8 bits\nScan type : Progressive\nBits/(Pixel*Frame) : 0.216\nStream size : 657 MiB (90%)\nDefault : Yes\nForced : No\n\nAudio\nID : 2\nFormat : MPEG Audio\nFormat version : Version 1\nFormat profile : Layer 3\nCodec ID : A_MPEG/L3\nCodec ID/Hint : MP3\nDuration : 1h 17mn\nBit rate mode : Constant\nBit rate : 112 Kbps\nChannel count : 2 channels\nSampling rate : 44.1 KHz\nCompression mode : Lossy\nStream size : 62.3 MiB (8%)\nWriting library : LAMELAME_MAJOR_VERSI\nDefault : Yes\nForced : No\n\nSOURCE WAS ........A FELLOW PIRATE.....THANKS BRO...NICE 1...","torrent":{"xt":"urn:btih:ce894c09abe918a2cc344a1535254aad215fb7ea","amp;dn":"Fruitvale-Station-2013+CAMRiP+MP3+MURDER+","amp;tr":["udp%3A%2F%2Ftracker.openbittorrent.com%3A80","udp%3A%2F%2Fopen.demonii.com%3A1337","udp%3A%2F%2Ftracker.coppersurfer.tk%3A6969","udp%3A%2F%2Fexodus.desync.com%3A6969"],"infoHash":"ce894c09abe918a2cc344a1535254aad215fb7ea","infoHashBuffer":{"type":"Buffer","data":[206,137,76,9,171,233,24,162,204,52,74,21,53,37,74,173,33,95,183,234]},"announce":[],"urlList":[]}}